<svg width="16" height="16" viewBox="0 0 16 16" fill="none" xmlns="http://www.w3.org/2000/svg">
<rect width="16" height="16" rx="2" fill="#2F3347"/>
<path d="M4.19 12.14C3.74 12.14 3.325 12.0617 2.945 11.905C2.56833 11.7483 2.26167 11.51 2.025 11.19C1.79167 10.87 1.66667 10.4633 1.65 9.97H2.81C2.81 10.22 2.87167 10.425 2.995 10.585C3.11833 10.745 3.28333 10.865 3.49 10.945C3.7 11.0217 3.93 11.06 4.18 11.06C4.42 11.06 4.63333 11.0283 4.82 10.965C5.01 10.9017 5.15833 10.8117 5.265 10.695C5.375 10.575 5.43 10.4333 5.43 10.27C5.43 10.0533 5.36333 9.88333 5.23 9.76C5.1 9.63667 4.89 9.52333 4.6 9.42L3.32 8.91C2.82 8.71333 2.43667 8.485 2.17 8.225C1.90333 7.965 1.77 7.60667 1.77 7.15C1.77 6.62333 1.97833 6.19667 2.395 5.87C2.81167 5.54333 3.39333 5.38 4.14 5.38C4.86667 5.38 5.42833 5.55 5.825 5.89C6.22167 6.22667 6.44667 6.69667 6.5 7.3H5.34C5.29667 7.04333 5.18 6.83833 4.99 6.685C4.8 6.52833 4.51667 6.45 4.14 6.45C3.80667 6.45 3.54333 6.52 3.35 6.66C3.15667 6.79667 3.06 6.97 3.06 7.18C3.06 7.36 3.12 7.50333 3.24 7.61C3.36333 7.71333 3.55333 7.81333 3.81 7.91L5.23 8.46C5.71 8.64667 6.07833 8.88167 6.335 9.165C6.59167 9.44833 6.72 9.80333 6.72 10.23C6.72 10.62 6.62167 10.9583 6.425 11.245C6.22833 11.5283 5.94167 11.7483 5.565 11.905C5.18833 12.0617 4.73 12.14 4.19 12.14ZM8.30695 5.51H9.48695V8.22H12.317V5.51H13.497V12H12.317V9.25H9.48695V12H8.30695V5.51Z" fill="white"/>
</svg>
